<svg xmlns="http://www.w3.org/2000/svg" version="1.1" viewBox="-5.0 -10.0 110.0 135.0">
 <path d="m88.852 83.227h-1.1328l0.003906-55.965c0-0.21094-0.085937-0.41406-0.23438-0.5625l-14.809-14.648c-0.14844-0.14844-0.34766-0.23047-0.55859-0.23047h-9.3555c-0.4375 0-0.79297 0.35547-0.79297 0.79297v15.043h-23.707v-15.043c0-0.4375-0.35547-0.79297-0.79297-0.79297l-24.16-0.003906c-0.4375 0-0.79297 0.35547-0.79297 0.79297v70.617h-1.3711c-0.4375 0-0.79297 0.35547-0.79297 0.79297v3.3672c0 0.4375 0.35547 0.79297 0.79297 0.79297h77.707c0.4375 0 0.79297-0.35547 0.79297-0.79297v-3.3672c0-0.4375-0.35547-0.79297-0.79297-0.79297zm-25.293-69.824h8.2344l14.34 14.188v55.637h-19.344v-54.781c0-0.4375-0.35547-0.79297-0.79297-0.79297h-2.4375zm-6.1484 69.824v-11.305c0-0.35156-0.28516-0.63281-0.63281-0.63281h-13.555c-0.35156 0-0.63281 0.28516-0.63281 0.63281v11.305h-7.5547v-49.656h30.168v49.656zm-1.2695-10.668v10.668h-5.5078v-10.668zm-6.7773 10.668h-5.5078v-10.668h5.5078zm15.84-53.988v2.7461h-30.168v-2.7461zm-51.098-15.836h22.574v14.25h-2.4375c-0.4375 0-0.79297 0.35547-0.79297 0.79297v54.781h-19.344zm73.953 73.191-76.117 0.003906v-1.7812h76.121v1.7812zm-31.059-46.707h-4.582c-0.35156 0-0.63281 0.28516-0.63281 0.63281v4.8398c0 0.35156 0.28516 0.63281 0.63281 0.63281h4.582c0.35156 0 0.63281-0.28516 0.63281-0.63281v-4.8398c0-0.35156-0.28516-0.63281-0.63281-0.63281zm-0.63281 4.8398h-3.3125v-3.5703h3.3125zm-8.5312-4.8398h-4.582c-0.35156 0-0.63281 0.28516-0.63281 0.63281v4.8398c0 0.35156 0.28516 0.63281 0.63281 0.63281h4.582c0.35156 0 0.63281-0.28516 0.63281-0.63281v-4.8398c0-0.35156-0.28516-0.63281-0.63281-0.63281zm-0.63281 4.8398h-3.3125v-3.5703h3.3125zm9.7969 4.8398h-4.582c-0.35156 0-0.63281 0.28516-0.63281 0.63281v4.8398c0 0.35156 0.28516 0.63281 0.63281 0.63281h4.582c0.35156 0 0.63281-0.28516 0.63281-0.63281v-4.8398c0-0.35156-0.28516-0.63281-0.63281-0.63281zm-0.63281 4.8398h-3.3125v-3.5703h3.3125zm-8.5312-4.8398h-4.582c-0.35156 0-0.63281 0.28516-0.63281 0.63281v4.8398c0 0.35156 0.28516 0.63281 0.63281 0.63281h4.582c0.35156 0 0.63281-0.28516 0.63281-0.63281v-4.8398c0-0.35156-0.28516-0.63281-0.63281-0.63281zm-0.63281 4.8398h-3.3125v-3.5703h3.3125zm9.7969 4.8398h-4.582c-0.35156 0-0.63281 0.28516-0.63281 0.63281v4.8398c0 0.35156 0.28516 0.63281 0.63281 0.63281h4.582c0.35156 0 0.63281-0.28516 0.63281-0.63281v-4.8398c0-0.35156-0.28516-0.63281-0.63281-0.63281zm-0.63281 4.8398h-3.3125v-3.5703h3.3125zm-8.5312-4.8398h-4.582c-0.35156 0-0.63281 0.28516-0.63281 0.63281v4.8398c0 0.35156 0.28516 0.63281 0.63281 0.63281h4.582c0.35156 0 0.63281-0.28516 0.63281-0.63281v-4.8398c0-0.35156-0.28516-0.63281-0.63281-0.63281zm-0.63281 4.8398h-3.3125v-3.5703h3.3125zm-15.004-14.207h-4.4062c-0.35156 0-0.63281 0.28516-0.63281 0.63281v5.1289c0 0.35156 0.28516 0.63281 0.63281 0.63281h4.4062c0.35156 0 0.63281-0.28516 0.63281-0.63281v-5.1289c0-0.35156-0.28516-0.63281-0.63281-0.63281zm-0.63281 5.1289h-3.1406v-3.8594h3.1406zm-8.1797-5.1289h-4.4062c-0.35156 0-0.63281 0.28516-0.63281 0.63281v5.1289c0 0.35156 0.28516 0.63281 0.63281 0.63281h4.4062c0.35156 0 0.63281-0.28516 0.63281-0.63281v-5.1289c0-0.35156-0.28516-0.63281-0.63281-0.63281zm-0.63281 5.1289h-3.1406v-3.8594h3.1406zm9.4492 5.1289h-4.4062c-0.35156 0-0.63281 0.28516-0.63281 0.63281v5.1289c0 0.35156 0.28516 0.63281 0.63281 0.63281h4.4062c0.35156 0 0.63281-0.28516 0.63281-0.63281v-5.1289c0-0.35156-0.28516-0.63281-0.63281-0.63281zm-0.63281 5.1289h-3.1406v-3.8594h3.1406zm-8.1797-5.1289h-4.4062c-0.35156 0-0.63281 0.28516-0.63281 0.63281v5.1289c0 0.35156 0.28516 0.63281 0.63281 0.63281h4.4062c0.35156 0 0.63281-0.28516 0.63281-0.63281v-5.1289c0-0.35156-0.28516-0.63281-0.63281-0.63281zm-0.63281 5.1289h-3.1406v-3.8594h3.1406zm9.4492-46.16h-4.4062c-0.35156 0-0.63281 0.28516-0.63281 0.63281v5.1289c0 0.35156 0.28516 0.63281 0.63281 0.63281h4.4062c0.35156 0 0.63281-0.28516 0.63281-0.63281v-5.1289c0-0.35156-0.28516-0.63281-0.63281-0.63281zm-0.63281 5.1289h-3.1406v-3.8594h3.1406zm-8.1797-5.1289h-4.4062c-0.35156 0-0.63281 0.28516-0.63281 0.63281v5.1289c0 0.35156 0.28516 0.63281 0.63281 0.63281h4.4062c0.35156 0 0.63281-0.28516 0.63281-0.63281v-5.1289c0-0.35156-0.28516-0.63281-0.63281-0.63281zm-0.63281 5.1289h-3.1406v-3.8594h3.1406zm9.4492 5.1289h-4.4062c-0.35156 0-0.63281 0.28516-0.63281 0.63281v5.1289c0 0.35156 0.28516 0.63281 0.63281 0.63281h4.4062c0.35156 0 0.63281-0.28516 0.63281-0.63281v-5.1289c0-0.35156-0.28516-0.63281-0.63281-0.63281zm-0.63281 5.1289h-3.1406v-3.8594h3.1406zm-8.1797-5.1289h-4.4062c-0.35156 0-0.63281 0.28516-0.63281 0.63281v5.1289c0 0.35156 0.28516 0.63281 0.63281 0.63281h4.4062c0.35156 0 0.63281-0.28516 0.63281-0.63281v-5.1289c0-0.35156-0.28516-0.63281-0.63281-0.63281zm-0.63281 5.1289h-3.1406v-3.8594h3.1406zm9.4492 5.1289h-4.4062c-0.35156 0-0.63281 0.28516-0.63281 0.63281v5.1289c0 0.35156 0.28516 0.63281 0.63281 0.63281h4.4062c0.35156 0 0.63281-0.28516 0.63281-0.63281v-5.1289c0-0.35156-0.28516-0.63281-0.63281-0.63281zm-0.63281 5.1289h-3.1406v-3.8594h3.1406zm-8.1797-5.1289h-4.4062c-0.35156 0-0.63281 0.28516-0.63281 0.63281v5.1289c0 0.35156 0.28516 0.63281 0.63281 0.63281h4.4062c0.35156 0 0.63281-0.28516 0.63281-0.63281v-5.1289c0-0.35156-0.28516-0.63281-0.63281-0.63281zm-0.63281 5.1289h-3.1406v-3.8594h3.1406zm45.297 12.156h4.4062c0.35156 0 0.63281-0.28516 0.63281-0.63281v-4.8398c0-0.35156-0.28516-0.63281-0.63281-0.63281h-4.4062c-0.35156 0-0.63281 0.28516-0.63281 0.63281v4.8398c0 0.35156 0.28516 0.63281 0.63281 0.63281zm0.63281-4.8398h3.1406v3.5703h-3.1406zm8.1797 4.8398h4.4062c0.35156 0 0.63281-0.28516 0.63281-0.63281v-4.8398c0-0.35156-0.28516-0.63281-0.63281-0.63281h-4.4062c-0.35156 0-0.63281 0.28516-0.63281 0.63281v4.8398c0 0.35156 0.28516 0.63281 0.63281 0.63281zm0.63281-4.8398h3.1406v3.5703h-3.1406zm-9.4492 14.516h4.4062c0.35156 0 0.63281-0.28516 0.63281-0.63281v-4.8398c0-0.35156-0.28516-0.63281-0.63281-0.63281h-4.4062c-0.35156 0-0.63281 0.28516-0.63281 0.63281v4.8398c0 0.35156 0.28516 0.63281 0.63281 0.63281zm0.63281-4.8398h3.1406v3.5703h-3.1406zm8.1797 4.8398h4.4062c0.35156 0 0.63281-0.28516 0.63281-0.63281v-4.8398c0-0.35156-0.28516-0.63281-0.63281-0.63281h-4.4062c-0.35156 0-0.63281 0.28516-0.63281 0.63281v4.8398c0 0.35156 0.28516 0.63281 0.63281 0.63281zm0.63281-4.8398h3.1406v3.5703h-3.1406zm-9.4492-33.867h4.4062c0.35156 0 0.63281-0.28516 0.63281-0.63281v-4.8398c0-0.35156-0.28516-0.63281-0.63281-0.63281h-4.4062c-0.35156 0-0.63281 0.28516-0.63281 0.63281v4.8398c0 0.35156 0.28516 0.63281 0.63281 0.63281zm0.63281-4.8398h3.1406v3.5703h-3.1406zm-0.63281 14.516h4.4062c0.35156 0 0.63281-0.28516 0.63281-0.63281v-4.8398c0-0.35156-0.28516-0.63281-0.63281-0.63281h-4.4062c-0.35156 0-0.63281 0.28516-0.63281 0.63281v4.8398c0 0.35156 0.28516 0.63281 0.63281 0.63281zm0.63281-4.8398h3.1406v3.5703h-3.1406zm8.1797 4.8398h4.4062c0.35156 0 0.63281-0.28516 0.63281-0.63281v-4.8398c0-0.35156-0.28516-0.63281-0.63281-0.63281h-4.4062c-0.35156 0-0.63281 0.28516-0.63281 0.63281v4.8398c0 0.35156 0.28516 0.63281 0.63281 0.63281zm0.63281-4.8398h3.1406v3.5703h-3.1406zm-9.4492 14.516h4.4062c0.35156 0 0.63281-0.28516 0.63281-0.63281v-4.8398c0-0.35156-0.28516-0.63281-0.63281-0.63281h-4.4062c-0.35156 0-0.63281 0.28516-0.63281 0.63281v4.8398c0 0.35156 0.28516 0.63281 0.63281 0.63281zm0.63281-4.8398h3.1406v3.5703h-3.1406zm8.1797 4.8398h4.4062c0.35156 0 0.63281-0.28516 0.63281-0.63281v-4.8398c0-0.35156-0.28516-0.63281-0.63281-0.63281h-4.4062c-0.35156 0-0.63281 0.28516-0.63281 0.63281v4.8398c0 0.35156 0.28516 0.63281 0.63281 0.63281zm0.63281-4.8398h3.1406v3.5703h-3.1406z"/>
</svg>