<svg xmlns="http://www.w3.org/2000/svg" version="1.1" viewBox="-5.0 -10.0 110.0 135.0">
 <path d="m64.281 9h-28.551c-6.4609 0-11.719 5.2617-11.719 11.719v58.551c0 6.4609 5.2617 11.719 11.719 11.719h28.551c6.4609 0 11.719-5.2617 11.719-11.719v-58.551c0-6.4609-5.2617-11.719-11.719-11.719zm7.7188 70.281c0 4.2617-3.4609 7.7188-7.7188 7.7188h-28.551c-4.2617 0-7.7188-3.4609-7.7188-7.7188v-58.562c0-4.2617 3.4609-7.7188 7.7188-7.7188h0.55078c-0.17188 0.30078-0.28125 0.62891-0.28125 1 0 1.1016 0.89844 2 2 2h24c1.1016 0 2-0.89844 2-2 0-0.37109-0.10938-0.69922-0.28125-1h0.55078c4.2617 0 7.7188 3.4609 7.7188 7.7188v58.551z"/>
 <path d="m59 78.5h-18c-1.1016 0-2 0.89844-2 2s0.89844 2 2 2h18c1.1016 0 2-0.89844 2-2s-0.89844-2-2-2z"/>
</svg>