<?xml version="1.0" encoding="utf-8"?>
<svg viewBox="202.561 204.7861 195.6117 29.0975" width="184.6117" height="29.0975" xmlns="http://www.w3.org/2000/svg" xmlns:bx="https://boxy-svg.com">
  <defs>
    <style bx:fonts="Roboto">@import url(https://fonts.googleapis.com/css2?family=Roboto%3Aital%2Cwght%400%2C100%3B0%2C300%3B0%2C400%3B0%2C500%3B0%2C700%3B0%2C900%3B1%2C100%3B1%2C300%3B1%2C400%3B1%2C500%3B1%2C700%3B1%2C900&amp;display=swap);</style>
  </defs>
  <g fill="#4a6cf7" transform="matrix(0.9999999999999999, 0, 0, 1, 202.56097031327386, 204.78612896285068)"/>
  <text style="fill: rgb(255, 255, 255); font-family: Roboto; font-size: 20px; font-weight: 700; white-space: pre;" x="232.824" y="228.499" transform="matrix(0.9999999999999999, 0, 0, 1, -1.4210854715202004e-14, 0)">LAB SEMANTICS</text>
  <g id="SVGRepo_bgCarrier" stroke-width="0" transform="matrix(0.9999999999999999, 0, 0, 1, 208.8089712944543, 207.41953650612032)"/>
  <g id="SVGRepo_tracerCarrier" stroke-linecap="round" stroke-linejoin="round" transform="matrix(0.9999999999999999, 0, 0, 1, 208.8089712944543, 207.41953650612032)"/>
  <g id="SVGRepo_iconCarrier" transform="matrix(0.9999929666519164, 0, 0, 0.9999399781227113, 208.80935276417375, 207.419490729754)">
    <path d="M 12.209 7.428 L 8.374 5.182 C 7.804 4.865 7.792 4.055 8.353 3.723 C 8.633 3.557 8.985 3.565 9.256 3.744 L 13.057 5.99 L 12.209 7.428 Z" style="fill:#aecbfa;fill-rule:evenodd"/>
    <path d="M 12.503 11.303 L 4.776 6.866 C 4.21 6.542 4.209 5.731 4.776 5.407 C 5.039 5.256 5.362 5.256 5.625 5.406 L 12.503 9.36 L 12.503 11.303 Z" style="fill:#aecbfa;fill-rule:evenodd"/>
    <path d="M 21.644 5.71 C 21.406 5.329 20.912 5.197 20.513 5.406 L 13.895 9.158 L 13.895 7.417 L 17.73 5.17 C 18.115 4.933 18.24 4.436 18.013 4.047 C 17.771 3.67 17.274 3.547 16.881 3.766 L 12.65 6.215 C 12.378 6.374 12.209 6.665 12.209 6.979 L 12.209 23.31 C 12.133 23.955 12.789 24.438 13.389 24.181 C 13.732 24.033 13.938 23.68 13.895 23.31 L 13.895 11.112 L 21.328 6.866 C 21.734 6.632 21.875 6.116 21.644 5.71 Z" style="fill:#669df6;fill-rule:evenodd"/>
    <circle cx="12.01" cy="3.09" r="0.84" style="fill:#669df6" transform="matrix(1.131337, 0, 0, 1.123225, -0.529893, -0.277246)"/>
    <path d="M 10.195 11.876 C 10.46 12.02 10.625 12.295 10.625 12.595 L 10.625 17.178 C 10.626 17.481 10.462 17.76 10.195 17.908 C 10.067 17.979 9.924 18.017 9.777 18.02 C 9.626 18.016 9.479 17.978 9.347 17.908 L 4.459 15.111 C 3.894 14.787 3.893 13.976 4.459 13.651 C 4.722 13.5 5.045 13.5 5.308 13.651 L 8.928 15.717 L 8.928 13.089 L 7.288 12.157 C 6.9 11.924 6.765 11.429 6.982 11.034 C 7.213 10.644 7.716 10.509 8.114 10.73 L 10.195 11.876 Z" style="fill:#aecbfa"/>
    <circle cx="5.26" cy="9.26" r="0.84" style="fill:#aecbfa" transform="matrix(1.131337, 0, 0, 1.123225, -0.529893, -0.277246)"/>
    <path d="M 17.956 10.697 C 18.353 10.475 18.857 10.61 19.087 11 C 19.305 11.395 19.17 11.89 18.782 12.123 L 17.142 13.055 L 17.142 15.684 L 20.762 13.617 C 21.328 13.293 22.036 13.699 22.035 14.347 C 22.035 14.649 21.873 14.927 21.61 15.077 L 16.723 17.874 C 16.591 17.944 16.444 17.982 16.293 17.986 C 16.146 17.984 16.002 17.945 15.874 17.874 C 15.608 17.727 15.443 17.447 15.445 17.144 L 15.445 12.595 C 15.445 12.295 15.61 12.02 15.874 11.876 L 17.956 10.697 Z" style="fill:#4285f4"/>
    <circle cx="18.74" cy="9.26" r="0.84" style="fill:#4285f4" transform="matrix(1.131337, 0, 0, 1.123225, -0.529893, -0.277246)"/>
  </g>
</svg>