<svg  viewBox="0 0 113.36 111.71"><defs><style>.cls-1{isolation:isolate;}.cls-2{fill:#1976d2;}.cls-3{font-size:19.69px;fill:#fff;font-family:AlegreyaSans-Bold, AlegreyaSans Bold;font-weight:700;}.cls-4,.cls-7{fill:none;stroke-linecap:round;stroke-linejoin:round;}.cls-4{stroke:#2c2c2c;stroke-width:3px;}.cls-5{fill:#ffd740;}.cls-6{fill:#e6c23a;mix-blend-mode:multiply;}.cls-7{stroke:#1976d2;stroke-width:2px;mix-blend-mode:screen;}</style></defs><g className="cls-1"><g id="Layer_2" data-name="Layer 2"><g id="Objects"><rect className="cls-2" x="41.31" y="39.66" width="32.34" height="32.34"/><text className="cls-3" transform="translate(47.98 61.85)">AI</text><rect className="cls-4" x="41.31" y="39.66" width="32.34" height="32.34"/><polyline className="cls-4" points="47.98 39.71 47.98 21.08 33.73 10.16"/><path className="cls-5" d="M34.92,8.33a5.33,5.33,0,1,1-3.68-6.57A5.34,5.34,0,0,1,34.92,8.33Z"/><path className="cls-6" d="M31.73,7.38a3.5,3.5,0,0,1-1.52-5.86,5.33,5.33,0,1,0,4.72,6.76,5,5,0,0,0,.17-1.75A3.49,3.49,0,0,1,31.73,7.38Z"/><path className="cls-4" d="M34.92,8.33a5.33,5.33,0,1,1-3.68-6.57A5.34,5.34,0,0,1,34.92,8.33Z"/><polyline className="cls-4" points="66.98 39.71 66.98 21.08 81.23 10.16"/><path className="cls-5" d="M83.82,1.73a5.33,5.33,0,1,0,6.5,3.8A5.33,5.33,0,0,0,83.82,1.73Z"/><path className="cls-6" d="M84.71,4.93A3.51,3.51,0,0,0,89,7.44a3.41,3.41,0,0,0,1.54-.87,5.33,5.33,0,1,1-6.67-4.86,5.26,5.26,0,0,1,1.76-.13A3.52,3.52,0,0,0,84.71,4.93Z"/><path className="cls-4" d="M83.82,1.73a5.33,5.33,0,1,0,6.5,3.8A5.33,5.33,0,0,0,83.82,1.73Z"/><path className="cls-5" d="M62.74,7.65A5.32,5.32,0,1,1,58.3,1.56,5.33,5.33,0,0,1,62.74,7.65Z"/><path className="cls-6" d="M59.46,7.08a3.49,3.49,0,0,1-2.21-5.63,5.33,5.33,0,1,0,5.5,6.14,5.19,5.19,0,0,0,0-1.76A3.49,3.49,0,0,1,59.46,7.08Z"/><path className="cls-4" d="M62.74,7.65A5.32,5.32,0,1,1,58.3,1.56,5.33,5.33,0,0,1,62.74,7.65Z"/><line className="cls-4" x1="57.48" y1="39.66" x2="57.48" y2="13.53"/><polyline className="cls-4" points="39.71 65.33 21.08 65.33 10.16 79.58"/><path className="cls-5" d="M12.2,83.88a5.33,5.33,0,1,1-5-5.68A5.33,5.33,0,0,1,12.2,83.88Z"/><path className="cls-6" d="M8.88,83.6a3.52,3.52,0,0,1-3.27-3.75,3.45,3.45,0,0,1,.58-1.67,5.33,5.33,0,1,0,6,5.64,5.1,5.1,0,0,0-.2-1.75A3.52,3.52,0,0,1,8.88,83.6Z"/><path className="cls-4" d="M12.2,83.88a5.33,5.33,0,1,1-5-5.68A5.33,5.33,0,0,1,12.2,83.88Z"/><polyline className="cls-4" points="39.71 46.33 21.08 46.33 10.16 32.08"/><path className="cls-5" d="M4.92,23.18a5.33,5.33,0,1,0,6.91,3A5.33,5.33,0,0,0,4.92,23.18Z"/><path className="cls-6" d="M6.19,26.26a3.51,3.51,0,0,0,4.56,2,3.44,3.44,0,0,0,1.42-1.05,5.32,5.32,0,1,1-7.2-4,5.26,5.26,0,0,1,1.73-.34A3.5,3.5,0,0,0,6.19,26.26Z"/><path className="cls-4" d="M4.92,23.18a5.33,5.33,0,1,0,6.91,3A5.33,5.33,0,0,0,4.92,23.18Z"/><path className="cls-5" d="M12.15,56A5.33,5.33,0,1,1,7,50.5,5.33,5.33,0,0,1,12.15,56Z"/><path className="cls-6" d="M8.83,55.84A3.48,3.48,0,0,1,6,50.52,5.33,5.33,0,1,0,12.15,56a5.28,5.28,0,0,0-.25-1.74A3.51,3.51,0,0,1,8.83,55.84Z"/><path className="cls-4" d="M12.15,56A5.33,5.33,0,1,1,7,50.5,5.33,5.33,0,0,1,12.15,56Z"/><line className="cls-4" x1="39.66" y1="55.83" x2="13.53" y2="55.83"/><polyline className="cls-4" points="73.65 46.33 92.28 46.33 103.2 32.08"/><path className="cls-5" d="M111.46,30a5.33,5.33,0,1,1-3.09-6.87A5.33,5.33,0,0,1,111.46,30Z"/><path className="cls-6" d="M108.37,28.8a3.52,3.52,0,0,1-2-4.54,3.56,3.56,0,0,1,1-1.43A5.33,5.33,0,1,0,111.48,30a5.56,5.56,0,0,0,.32-1.74A3.51,3.51,0,0,1,108.37,28.8Z"/><path className="cls-4" d="M111.46,30a5.33,5.33,0,1,1-3.09-6.87A5.33,5.33,0,0,1,111.46,30Z"/><polyline className="cls-4" points="73.65 65.33 92.28 65.33 103.2 79.58"/><path className="cls-5" d="M106.48,78.19a5.33,5.33,0,1,0,5.33,5.33A5.33,5.33,0,0,0,106.48,78.19Z"/><path className="cls-6" d="M106.53,81.51A3.51,3.51,0,0,0,110.05,85a3.41,3.41,0,0,0,1.7-.46,5.37,5.37,0,1,1-3.48-6.07A3.49,3.49,0,0,0,106.53,81.51Z"/><path className="cls-4" d="M106.48,78.19a5.33,5.33,0,1,0,5.33,5.33A5.33,5.33,0,0,0,106.48,78.19Z"/><path className="cls-5" d="M111.45,57.86a5.32,5.32,0,1,1-2.88-7A5.33,5.33,0,0,1,111.45,57.86Z"/><path className="cls-6" d="M108.4,56.54a3.49,3.49,0,0,1-.82-6,5.38,5.38,0,1,0,4.27,5.54A3.51,3.51,0,0,1,108.4,56.54Z"/><path className="cls-4" d="M111.45,57.86a5.32,5.32,0,1,1-2.88-7A5.33,5.33,0,0,1,111.45,57.86Z"/><line className="cls-4" x1="73.7" y1="55.83" x2="99.83" y2="55.83"/><polyline className="cls-4" points="66.98 71.99 66.98 90.63 81.23 101.55"/><path className="cls-5" d="M90.34,106.1a5.33,5.33,0,1,1-3.89-6.45A5.33,5.33,0,0,1,90.34,106.1Z"/><path className="cls-6" d="M87.12,105.25A3.5,3.5,0,0,1,84.56,101a3.46,3.46,0,0,1,.85-1.55,5.33,5.33,0,1,0,4.94,6.6,5.25,5.25,0,0,0,.12-1.76A3.51,3.51,0,0,1,87.12,105.25Z"/><path className="cls-4" d="M90.34,106.1a5.33,5.33,0,1,1-3.89-6.45A5.33,5.33,0,0,1,90.34,106.1Z"/><polyline className="cls-4" points="47.98 71.99 47.98 90.63 33.73 101.55"/><path className="cls-5" d="M28.22,99.74a5.32,5.32,0,1,0,6.66,3.51A5.32,5.32,0,0,0,28.22,99.74Z"/><path className="cls-6" d="M29.25,102.9a3.52,3.52,0,0,0,4.4,2.32,3.57,3.57,0,0,0,1.49-1,5.33,5.33,0,1,1-6.87-4.55A5.25,5.25,0,0,1,30,99.51,3.49,3.49,0,0,0,29.25,102.9Z"/><path className="cls-4" d="M28.22,99.74a5.32,5.32,0,1,0,6.66,3.51A5.32,5.32,0,0,0,28.22,99.74Z"/><circle className="cls-5" cx="57.48" cy="104.88" r="5.33" transform="translate(-38.89 34.06) rotate(-24.96)"/><path className="cls-6" d="M59.38,105.5a3.47,3.47,0,0,1-1.1-5.94,5.33,5.33,0,1,0,4.23,7.07,5,5,0,0,0,.29-1.74A3.47,3.47,0,0,1,59.38,105.5Z"/><circle className="cls-4" cx="57.48" cy="104.88" r="5.33" transform="translate(-38.89 34.06) rotate(-24.96)"/><line className="cls-4" x1="57.48" y1="72.05" x2="57.48" y2="98.18"/><polyline className="cls-7" points="62.65 43.84 69.15 43.84 69.15 52.34"/></g></g></g></svg>