<svg xmlns="http://www.w3.org/2000/svg" version="1.1" viewBox="-5.0 -10.0 110.0 135.0">
 <path d="m44.285 32.957c4.4453 0 8.4727 1.8008 11.383 4.7148 2.9141 2.9141 4.7148 6.9375 4.7148 11.383 0 4.4453-1.8008 8.4688-4.7148 11.383-2.9141 2.9141-6.9375 4.7148-11.383 4.7148-4.4453 0-8.4688-1.8008-11.383-4.7148-2.9141-2.9141-4.7148-6.9375-4.7148-11.383 0-4.4453 1.8008-8.4688 4.7148-11.383 2.9141-2.9141 6.9375-4.7148 11.383-4.7148zm-24.27 42.676c-0.015625 0.035157-0.03125 0.070313-0.050781 0.10156-0.23438 0.51953-0.24219 1.0859-0.070313 1.5859 0.17578 0.5 0.53516 0.93359 1.0391 1.1953 0.035156 0.015625 0.070312 0.03125 0.10156 0.050781 0.51953 0.23438 1.0859 0.24219 1.5859 0.070313 0.51562-0.17969 0.96484-0.55859 1.2227-1.0938 0.13672-0.28125 0.20312-0.57812 0.21094-0.87109 0-0.019531-0.003907-0.035156-0.003907-0.054687 0-0.019532 0-0.035157 0.003907-0.054688-0.007813-0.22266-0.046876-0.44531-0.12109-0.65234-0.17969-0.51562-0.55859-0.96484-1.0938-1.2227s-1.1211-0.27344-1.6367-0.089844c-0.48828 0.16797-0.92578 0.52734-1.1875 1.0352zm-1.918 2.3164c0.34375 0.98047 1.0586 1.8281 2.0664 2.3125l0.003907 0.003906c1.0078 0.48438 2.1133 0.51562 3.0938 0.17188 0.95703-0.33594 1.7891-1.0234 2.2773-1.9961 0.027344-0.046875 0.050782-0.09375 0.070313-0.14062 0.10938-0.23828 0.19531-0.48438 0.25391-0.73047h4.1523c0.52734 0 0.95703-0.42969 0.95703-0.95703v-7.1914c3.5781 2.3438 7.8086 3.7695 12.363 3.9453v5.2539c-0.30859 0.070312-0.61328 0.17578-0.91406 0.32031l-0.003906 0.003906c-1.0703 0.51563-1.832 1.418-2.1992 2.4609-0.36328 1.0391-0.33203 2.2188 0.18359 3.293v0.003906c0.51562 1.0703 1.418 1.832 2.4609 2.1992 1.0391 0.36328 2.2188 0.33203 3.293-0.18359h0.003906c1.0703-0.51562 1.832-1.418 2.1992-2.4609 0.36328-1.0391 0.33203-2.2188-0.18359-3.293l-0.003906-0.003906c-0.51562-1.0703-1.418-1.832-2.4609-2.1992-0.15234-0.054688-0.30859-0.097657-0.46484-0.13281v-5.2539c5.5234-0.21484 10.578-2.2695 14.559-5.5703l4.8047 3.2422c-0.10156 0.51172-0.13281 1.0234-0.10156 1.5195 0.089844 1.4102 0.70703 2.6836 1.8359 3.4727l17.414 12.199c0.019532 0.015625 0.042969 0.035157 0.0625 0.046875 1.1211 0.78125 2.5195 0.92578 3.8672 0.53125 1.2539-0.37109 2.4766-1.2227 3.3672-2.4688 0.019531-0.019531 0.035156-0.042968 0.050781-0.066406l4.5625-6.5508c0.89062-1.2812 1.2852-2.7539 1.1992-4.0898-0.089844-1.4102-0.70703-2.6836-1.8359-3.4688l-17.414-12.203c-0.019532-0.015625-0.042969-0.035156-0.0625-0.050781-1.125-0.78125-2.5234-0.92969-3.875-0.53125-0.38281 0.11328-0.76172 0.26953-1.1289 0.46875l-5.0703-3.4219c0.64844-2.0391 1.0352-4.1953 1.1211-6.4258h8.8555c0.066407 0.27344 0.16016 0.53906 0.28906 0.80469 0.48438 1.0078 1.3359 1.7227 2.3125 2.0664 0.98047 0.34375 2.0898 0.3125 3.0977-0.17578 1.0078-0.48438 1.7227-1.3359 2.0664-2.3125 0.33984-0.98047 0.3125-2.0898-0.17578-3.0977-0.48438-1.0078-1.3359-1.7227-2.3125-2.0664-0.98047-0.33984-2.0898-0.3125-3.0977 0.17578-1.0078 0.48438-1.7227 1.3359-2.0664 2.3125-0.042968 0.125-0.082031 0.25-0.11328 0.37891h-8.8555c-0.12109-3.1562-0.84766-6.1562-2.0586-8.8945l10.508 0.007812c0.52734 0 0.95703-0.42969 0.95703-0.95703v-4.1523c0.27344-0.066406 0.53906-0.16016 0.80469-0.28906 1.0078-0.48438 1.7227-1.3359 2.0664-2.3164 0.33984-0.97656 0.3125-2.0859-0.17188-3.0938l-0.003906-0.003907c-0.48438-1.0078-1.3359-1.7227-2.3125-2.0664-0.97656-0.33984-2.0859-0.3125-3.0898 0.17188l-0.003906 0.003906c-1.0078 0.48438-1.7227 1.3359-2.0664 2.3164-0.34375 0.97656-0.3125 2.0859 0.17578 3.0977 0.48438 1.0078 1.3359 1.7227 2.3125 2.0664 0.125 0.042969 0.25 0.082031 0.37891 0.11328v3.1953h-10.504c-1.1094-2.0039-2.4922-3.8359-4.1016-5.4453-0.625-0.625-1.2852-1.2148-1.9766-1.7695l0.003906-6.7539h3.1953c0.066406 0.26953 0.16016 0.53906 0.28516 0.80078v0.003906c0.48438 1.0078 1.3359 1.7227 2.3125 2.0664 0.98047 0.34375 2.0898 0.3125 3.0977-0.17578 1.0078-0.48438 1.7227-1.3359 2.0664-2.3164 0.34375-0.97656 0.3125-2.0898-0.17578-3.0977-0.48438-1.0078-1.3359-1.7227-2.3125-2.0664-0.97656-0.33984-2.0859-0.3125-3.0898 0.17188h-0.003907c-1.0078 0.48437-1.7227 1.3359-2.0664 2.3164-0.042969 0.125-0.082031 0.25-0.11328 0.37891h-4.1523c-0.52734 0-0.95703 0.42969-0.95703 0.95703v6.3203c-3.5781-2.3438-7.8086-3.7695-12.363-3.9453v-5.2539c0.15625-0.035156 0.3125-0.082031 0.46484-0.13281 1.043-0.36328 1.9453-1.125 2.4609-2.1992l0.003906-0.003906c0.51562-1.0703 0.54688-2.25 0.18359-3.293s-1.125-1.9453-2.1992-2.4609c-1.0703-0.51562-2.25-0.54688-3.293-0.18359-1.043 0.36328-1.9453 1.125-2.4609 2.1992v0.003906c-0.51562 1.0703-0.54688 2.25-0.18359 3.293s1.125 1.9453 2.1992 2.4609h0.003906c0.29688 0.14453 0.60547 0.25 0.91406 0.32031v5.2539c-4.5273 0.17578-8.7344 1.5859-12.301 3.9062l-0.066406-6.207c0.003906-0.023437 0.003906-0.050781 0.003906-0.074218 0-0.52734-0.42969-0.95703-0.95703-0.95703h-4.1523c-0.03125-0.12891-0.070312-0.25391-0.11328-0.37891-0.34375-0.98047-1.0586-1.8281-2.0664-2.3164h-0.003906c-1.0078-0.48438-2.1133-0.51562-3.0938-0.17188-0.98047 0.34375-1.8281 1.0586-2.3125 2.0664-0.48438 1.0078-0.51563 2.1172-0.17578 3.0977 0.34375 0.98047 1.0586 1.8281 2.0664 2.3164 1.0078 0.48437 2.1172 0.51562 3.0977 0.17578 0.98047-0.34375 1.8281-1.0586 2.3125-2.0664v-0.003906c0.125-0.26172 0.22266-0.52734 0.28516-0.80078h3.207l0.070313 6.6875c-0.72266 0.57422-1.4102 1.1875-2.0586 1.8398-1.6055 1.6055-2.9922 3.4414-4.1016 5.4453l-10.5-0.007812v-3.1953c0.12891-0.03125 0.25391-0.070312 0.37891-0.11328 0.98047-0.34375 1.8281-1.0586 2.3164-2.0664 0.48438-1.0078 0.51562-2.1172 0.17578-3.0977-0.34375-0.98047-1.0586-1.8281-2.0664-2.3164l-0.003906-0.003906c-1.0078-0.48438-2.1133-0.51562-3.0898-0.17188-0.98047 0.34375-1.8281 1.0586-2.3164 2.0664v0.003907c-0.48438 1.0078-0.51562 2.1133-0.17188 3.0938 0.34375 0.98047 1.0586 1.8281 2.0664 2.3164 0.26172 0.125 0.53125 0.22266 0.80469 0.28906v4.1523c0 0.52734 0.42969 0.95703 0.95703 0.95703h10.508c-1.2109 2.7383-1.9375 5.7383-2.0586 8.8945h-8.8555c-0.03125-0.12891-0.070313-0.25391-0.11328-0.37891-0.34375-0.98047-1.0586-1.8281-2.0664-2.3125l-0.003906-0.003906c-1.0078-0.48438-2.1133-0.51562-3.0938-0.17188s-1.8281 1.0586-2.3125 2.0664c-0.48438 1.0078-0.51562 2.1172-0.17578 3.0977 0.34375 0.98047 1.0586 1.8281 2.0664 2.3125 1.0078 0.48437 2.1172 0.51562 3.0977 0.17578 0.98047-0.34375 1.8281-1.0586 2.3164-2.0664v-0.003906c0.125-0.26172 0.22266-0.52734 0.28516-0.80078h8.8555c0.12109 3.1562 0.84766 6.1562 2.0586 8.8945l-10.512-0.003906c-0.52734 0-0.95703 0.42969-0.95703 0.95703v4.1523c-0.12891 0.03125-0.25391 0.070313-0.37891 0.11328-0.98047 0.34375-1.8281 1.0586-2.3125 2.0664v0.003907c-0.48438 1.0078-0.51562 2.1133-0.17578 3.0938 0.34375 0.98047 1.0586 1.8281 2.0664 2.3164h0.003906c1.0078 0.48438 2.1133 0.51562 3.0938 0.17188 0.95703-0.33594 1.7891-1.0234 2.2773-1.9961 0.027344-0.046875 0.050781-0.09375 0.070313-0.14062 0.45312-0.98828 0.47656-2.0703 0.14062-3.0234-0.33594-0.95703-1.0234-1.7891-1.9961-2.2773-0.046875-0.027344-0.09375-0.050781-0.14062-0.066406-0.23828-0.10938-0.48438-0.19531-0.73047-0.25391v-3.1953h10.504c1.1094 2.0039 2.4922 3.8359 4.1016 5.4453 0.625 0.625 1.2852 1.2188 1.9766 1.7734 0 0.019531-0.003906 0.039063-0.003906 0.058594v7.5625h-3.1953c-0.03125-0.12891-0.070313-0.25391-0.11328-0.37891-0.33594-0.95703-1.0234-1.7891-1.9961-2.2773-0.046874-0.027344-0.09375-0.050781-0.14062-0.070313-0.98828-0.45312-2.0703-0.47656-3.0234-0.14062-0.98047 0.34375-1.8281 1.0586-2.3125 2.0664v0.003906c-0.49609 0.99219-0.52734 2.1016-0.18359 3.0781zm29.996-18.156c0.85156-0.41016 1.457-1.1289 1.7461-1.957 0.28906-0.82813 0.26172-1.7656-0.14844-2.6172s-1.1289-1.457-1.957-1.7461c-0.82812-0.28906-1.7656-0.26172-2.6172 0.14844-0.85156 0.41016-1.457 1.1289-1.7461 1.957-0.019532 0.054687-0.039063 0.11328-0.054688 0.17188h-5.0078c-0.52734 0-0.95703 0.42969-0.95703 0.95703 0 0.52734 0.42969 0.95703 0.95703 0.95703h5.0078c0.050782 0.17969 0.12109 0.35547 0.20312 0.53125 0.41016 0.85156 1.1289 1.457 1.957 1.7461 0.82813 0.28906 1.7656 0.26172 2.6172-0.14844zm-1.9883-1.6562c0.36719 0.12891 0.78125 0.11719 1.1602-0.066407 0.37891-0.18359 0.64453-0.5 0.77344-0.86328 0.12891-0.36719 0.11719-0.78125-0.066406-1.1602s-0.5-0.64453-0.86328-0.77344c-0.36719-0.12891-0.78125-0.11719-1.1602 0.066406-0.37891 0.18359-0.64453 0.5-0.77344 0.86328-0.050781 0.14453-0.078125 0.29297-0.085937 0.44922v0.054687 0.054688c0.007812 0.20312 0.054687 0.41016 0.14844 0.60547 0.18359 0.375 0.5 0.64453 0.86719 0.76953zm-2.2891-8.1367 5.4258-0.007812c0.054687 0.23828 0.13672 0.47656 0.25 0.70703l0.003906 0.003906c0.41016 0.85156 1.1289 1.457 1.957 1.7461 0.82422 0.28906 1.7617 0.26172 2.6133-0.14453h0.003906c0.85156-0.41016 1.457-1.1289 1.7461-1.957 0.28906-0.82812 0.26172-1.7656-0.14844-2.6172-0.41016-0.85156-1.1289-1.457-1.957-1.7461-0.82813-0.28906-1.7656-0.26172-2.6172 0.14844-0.85156 0.41016-1.457 1.1289-1.7461 1.957l-5.5312 0.007812c-0.52734 0-0.95312 0.42578-0.95312 0.95312 0 0.51953 0.42578 0.94922 0.95312 0.94922zm9.375 0.60156c0.03125-0.019531 0.0625-0.035156 0.097656-0.046874 0.35156-0.18359 0.60156-0.49219 0.72656-0.83984 0.12891-0.36719 0.11719-0.78125-0.066406-1.1602-0.18359-0.37891-0.5-0.64453-0.86328-0.77344-0.36719-0.12891-0.78125-0.11719-1.1602 0.066406-0.37891 0.18359-0.64453 0.5-0.77344 0.86328-0.12109 0.35156-0.11719 0.74609 0.042968 1.1094 0.019532 0.03125 0.035157 0.0625 0.046876 0.097657 0.18359 0.35156 0.49219 0.60156 0.83984 0.72656 0.34766 0.125 0.74219 0.11719 1.1094-0.042969zm-7.0938-5.7969c0.85156-0.41016 1.457-1.1289 1.7461-1.957s0.26172-1.7656-0.14844-2.6172c-0.41016-0.85156-1.1289-1.457-1.957-1.7461s-1.7656-0.26172-2.6172 0.14844c-0.85156 0.41016-1.457 1.1289-1.7461 1.957-0.019531 0.058594-0.039062 0.11719-0.054688 0.17578l-5.4805 0.007813c-0.52734 0-0.95312 0.42578-0.95312 0.95312 0 0.52734 0.42578 0.95313 0.95312 0.95313l5.4805-0.007813c0.050782 0.17969 0.12109 0.35938 0.20313 0.53516 0.41016 0.85156 1.1289 1.457 1.957 1.7461s1.7656 0.26172 2.6172-0.14844zm-1.9883-1.6523c0.36719 0.12891 0.78125 0.11719 1.1602-0.066406 0.37891-0.18359 0.64453-0.5 0.77344-0.86328 0.12891-0.36719 0.11719-0.78125-0.066407-1.1602-0.18359-0.37891-0.5-0.64453-0.86328-0.77344-0.36719-0.12891-0.78125-0.11719-1.1602 0.066407-0.37891 0.18359-0.64453 0.5-0.77344 0.86328-0.12891 0.36719-0.11719 0.78125 0.066406 1.1602 0.17969 0.37891 0.49609 0.64453 0.86328 0.77344zm-0.61719 41.945c-0.5625-0.19531-1.0547-0.60156-1.3477-1.1719-0.015625-0.035156-0.03125-0.070312-0.050781-0.10547-0.26562-0.58594-0.27734-1.2227-0.082031-1.7852 0.19531-0.5625 0.60156-1.0547 1.1719-1.3477 0.035156-0.015625 0.070312-0.03125 0.10547-0.050781 0.30469-0.13672 0.62109-0.20703 0.93359-0.21484 0.019532 0 0.039063 0.003906 0.054688 0.003906 0.019531 0 0.039062 0 0.054687-0.003906 0.25391 0.007813 0.50391 0.050781 0.73828 0.13281 0.5625 0.19531 1.0547 0.60156 1.3438 1.1719 0.015626 0.035157 0.03125 0.070313 0.050782 0.10547 0.26562 0.58594 0.27734 1.2227 0.078125 1.7852-0.19531 0.5625-0.60156 1.0547-1.1758 1.3438-0.035157 0.015624-0.070313 0.03125-0.10547 0.050781-0.56641 0.27344-1.207 0.28516-1.7695 0.085937zm1.8906-71.953c0.57031 0.29297 0.97656 0.78125 1.1758 1.3438 0.19531 0.56641 0.18359 1.2031-0.078125 1.7852-0.019531 0.035156-0.035157 0.070312-0.050781 0.10547-0.29297 0.57031-0.78125 0.97656-1.3438 1.1719-0.23828 0.082031-0.48438 0.12891-0.73828 0.13281-0.019531 0-0.039062-0.003906-0.054687-0.003906-0.019531 0-0.039063 0-0.054688 0.003906-0.31641-0.007813-0.63281-0.078125-0.93359-0.21484-0.035157-0.019531-0.070313-0.035156-0.10547-0.050781-0.57031-0.29297-0.97656-0.78125-1.1719-1.3438-0.19531-0.56641-0.18359-1.2031 0.082031-1.7852 0.019531-0.035156 0.035156-0.070312 0.050781-0.10547 0.29297-0.57031 0.78125-0.97656 1.3477-1.1719 0.5625-0.19531 1.1992-0.18359 1.7852 0.078125 0.019531 0.023437 0.054687 0.039062 0.089843 0.054687zm23.293 9.9297c-0.17969 0.51562-0.55859 0.96484-1.0938 1.2227-0.53516 0.25781-1.1211 0.27344-1.6367 0.09375-0.5-0.17578-0.93359-0.53516-1.1953-1.043-0.015625-0.035156-0.03125-0.070312-0.050781-0.10156-0.12109-0.26953-0.17969-0.54688-0.1875-0.82422v-0.054687-0.054688c0.007812-0.22266 0.046875-0.44531 0.12109-0.65234 0.17578-0.5 0.53516-0.93359 1.0391-1.1953 0.035156-0.015625 0.070313-0.03125 0.10156-0.050782 0.51953-0.23437 1.0859-0.24219 1.5859-0.070312 0.51562 0.17969 0.96484 0.55859 1.2227 1.0938 0.25781 0.53125 0.27344 1.1172 0.09375 1.6367zm10.398 7.793c-0.17969 0.51562-0.55859 0.96484-1.0938 1.2227-0.28125 0.13672-0.58203 0.20703-0.875 0.21094-0.019531 0-0.039063-0.003906-0.054688-0.003906-0.019531 0-0.039062 0-0.054687 0.003906-0.22266-0.007812-0.44531-0.046875-0.65234-0.12109-0.51562-0.17969-0.96484-0.55859-1.2227-1.0938-0.25781-0.53516-0.27344-1.1211-0.09375-1.6367 0.17578-0.5 0.53516-0.93359 1.043-1.1953 0.035157-0.015625 0.070313-0.03125 0.10156-0.050781 0.51953-0.23438 1.0859-0.24219 1.5859-0.070313 0.5 0.17578 0.93359 0.53516 1.1953 1.043 0.015625 0.035157 0.03125 0.070313 0.050781 0.10156 0.23828 0.52344 0.24609 1.0898 0.070313 1.5898zm4.3438 18.895c-0.17969 0.51562-0.55859 0.96484-1.0938 1.2227-0.53516 0.25781-1.1211 0.27344-1.6367 0.09375s-0.96484-0.55859-1.2227-1.0938c-0.13672-0.28125-0.20703-0.58203-0.21094-0.875 0-0.019531 0.003906-0.039063 0.003906-0.054687 0-0.019532 0-0.039063-0.003906-0.054688 0.007813-0.22266 0.046875-0.44531 0.12109-0.65234 0.17969-0.51562 0.55859-0.96484 1.0938-1.2227s1.1211-0.27344 1.6367-0.09375 0.96484 0.55859 1.2227 1.0938 0.27344 1.1211 0.089844 1.6367zm-73.801 17.207c0.26172-0.50781 0.69531-0.86719 1.1953-1.043 0.21094-0.074219 0.42969-0.11328 0.65234-0.12109h0.054687 0.054688c0.29297 0.007812 0.58984 0.074218 0.87109 0.21094 0.53516 0.25781 0.91406 0.70703 1.0938 1.2227 0.17969 0.51953 0.16406 1.1055-0.09375 1.6367-0.25781 0.53516-0.70703 0.91406-1.2227 1.0938-0.5 0.17578-1.0664 0.16406-1.5859-0.070312-0.035157-0.019532-0.066407-0.035157-0.10156-0.050782-0.50781-0.26172-0.86719-0.69531-1.043-1.1953-0.17578-0.5-0.16406-1.0664 0.070312-1.5859 0.023438-0.027344 0.039062-0.0625 0.054688-0.097656zm10.375-45.531c0.25781-0.53516 0.70703-0.91406 1.2227-1.0938 0.5-0.17578 1.0664-0.16406 1.5859 0.070312 0.035157 0.019532 0.066407 0.035157 0.10156 0.050782 0.50781 0.26172 0.86719 0.69531 1.043 1.1953 0.074219 0.21094 0.11328 0.42969 0.12109 0.65234 0 0.019531-0.003906 0.035156-0.003906 0.054688 0 0.019531 0 0.039062 0.003906 0.054687-0.007812 0.27734-0.066406 0.55469-0.1875 0.82422-0.019531 0.035156-0.035156 0.066406-0.050781 0.10156-0.26172 0.50781-0.69531 0.86719-1.1953 1.043-0.51953 0.17969-1.1055 0.16406-1.6367-0.09375-0.53516-0.25781-0.91406-0.70703-1.0938-1.2227-0.18359-0.51953-0.16797-1.1055 0.089844-1.6367zm-10.426 7.8438c0.019532-0.035156 0.035156-0.066406 0.050782-0.10156 0.26172-0.50781 0.69531-0.86719 1.1953-1.043s1.0664-0.16406 1.5859 0.070312c0.035156 0.019531 0.066406 0.035157 0.10156 0.050781 0.50781 0.26172 0.86719 0.69531 1.043 1.1953 0.17969 0.51953 0.16406 1.1055-0.09375 1.6367-0.25781 0.53516-0.70703 0.91406-1.2227 1.0938-0.20703 0.074218-0.42969 0.11328-0.65234 0.12109-0.019531 0-0.035157-0.003907-0.054688-0.003907s-0.039062 0-0.054687 0.003907c-0.29297-0.007813-0.58984-0.074219-0.875-0.21094-0.53516-0.25781-0.91406-0.70703-1.0938-1.2227-0.17188-0.50391-0.16406-1.0703 0.070312-1.5898zm-4.3203 18.844c0.25781-0.53516 0.70703-0.91406 1.2227-1.0938 0.5-0.17578 1.0664-0.16406 1.5859 0.070312 0.035156 0.019532 0.066406 0.035157 0.10156 0.050782 0.50781 0.26172 0.86719 0.69531 1.043 1.1953 0.074219 0.20703 0.11328 0.42969 0.12109 0.65234v0.054688 0.054687c-0.007812 0.27734-0.070312 0.55469-0.1875 0.82422-0.019531 0.035156-0.035156 0.066406-0.050781 0.10156-0.26172 0.50781-0.69531 0.86719-1.1953 1.043-0.51953 0.17969-1.1055 0.16406-1.6367-0.09375-0.53906-0.25391-0.91797-0.70312-1.0977-1.2227-0.17969-0.51562-0.16406-1.1016 0.09375-1.6367zm61.562 10.164 4.1445 2.7969c-0.22266 0.23437-0.43359 0.48828-0.63281 0.76172-0.019531 0.019532-0.035156 0.042969-0.050781 0.066406l-4.5664 6.5586c-0.16016 0.23047-0.30469 0.46875-0.43359 0.71094l-4.0039-2.6992c0.074219-0.074219 0.14844-0.14844 0.22656-0.22266 2.2617-2.2617 4.082-4.9648 5.3164-7.9727zm-6.668-25.086c-4.0586-4.0586-9.6641-6.5664-15.855-6.5664s-11.797 2.5078-15.855 6.5664c-4.0586 4.0586-6.5664 9.6641-6.5664 15.855s2.5078 11.797 6.5664 15.855c4.0586 4.0586 9.6641 6.5664 15.855 6.5664s11.797-2.5078 15.855-6.5664c4.0586-4.0586 6.5664-9.6641 6.5664-15.855 0-6.1953-2.5078-11.801-6.5664-15.855zm11.695 29.809 0.003906-0.007813c0.011718-0.019531 0.023437-0.039062 0.035156-0.054687 0.63281-0.87891 1.4805-1.4766 2.3398-1.7305 0.80469-0.23828 1.6172-0.16406 2.2461 0.26953 0.019531 0.011719 0.039062 0.027344 0.058593 0.039063l17.418 12.207c0.62109 0.43359 0.96875 1.1797 1.0234 2.0273 0.058593 0.92578-0.22656 1.9609-0.86328 2.8789l-4.5625 6.5508c-0.011718 0.019532-0.027344 0.039063-0.039062 0.058594-0.63281 0.88281-1.4805 1.4805-2.3477 1.7383-0.80469 0.23828-1.6133 0.16406-2.2383-0.26953-0.019531-0.015625-0.039062-0.027344-0.0625-0.039062l-17.418-12.207c-0.62109-0.4375-0.96484-1.1797-1.0195-2.0273-0.058594-0.92578 0.22266-1.957 0.86328-2.875zm-17.52-23.988c-2.5664-2.5664-6.1133-4.1523-10.031-4.1523-3.918 0-7.4648 1.5859-10.031 4.1523-2.5664 2.5664-4.1562 6.1133-4.1562 10.031 0 3.918 1.5859 7.4648 4.1562 10.031 2.5664 2.5664 6.1133 4.1523 10.031 4.1523 3.918 0 7.4648-1.5859 10.031-4.1523 2.5664-2.5664 4.1523-6.1133 4.1523-10.031 0.003906-3.918-1.5859-7.4609-4.1523-10.031z" fill-rule="evenodd"/>
<text x="0.0" y="117.5" font-size="5.0" font-weight="bold" font-family="Arbeit Regular, Helvetica, Arial-Unicode, Arial, Sans-serif" fill="#000000">Created by Riski Ayu</text><text x="0.0" y="122.5" font-size="5.0" font-weight="bold" font-family="Arbeit Regular, Helvetica, Arial-Unicode, Arial, Sans-serif" fill="#000000">from Noun Project</text></svg>