<svg xmlns="http://www.w3.org/2000/svg" version="1.1" viewBox="-5.0 -10.0 110.0 135.0">
 <path d="m14.531 52.078c0 3.457 2.0859 6.5781 5.2812 7.9023s6.875 0.58984 9.3203-1.8555c2.4492-2.4453 3.1797-6.125 1.8555-9.3203-1.3242-3.1992-4.4414-5.2812-7.9023-5.2812-4.7227 0.003906-8.5508 3.832-8.5547 8.5547zm14.828 0c-0.003906 2.5352-1.5312 4.8203-3.875 5.793-2.3438 0.96875-5.043 0.42969-6.8359-1.3633-1.793-1.7969-2.3281-4.4922-1.3594-6.8359 0.97266-2.3438 3.2617-3.8711 5.7969-3.8711 3.4648 0.003907 6.2695 2.8125 6.2734 6.2773zm20.691-3.043c-3.4609-0.003906-6.582 2.082-7.9062 5.2773s-0.59375 6.875 1.8516 9.3242c2.4453 2.4453 6.125 3.1797 9.3203 1.8555 3.1992-1.3242 5.2852-4.4414 5.2852-7.9023-0.007812-4.7188-3.832-8.5469-8.5508-8.5547zm0 14.828c-2.5352 0-4.8242-1.5312-5.7969-3.875-0.96875-2.3438-0.43359-5.0391 1.3633-6.8359 1.793-1.793 4.4922-2.3281 6.8359-1.3594 2.3438 0.97266 3.8711 3.2578 3.8711 5.7969-0.003907 3.4609-2.8086 6.2695-6.2734 6.2734zm35.336 0.84375-16.945-0.003906c-3.7461 0.007813-7.1523 2.1875-8.7227 5.5898-0.39844-0.050781-0.79688-0.074219-1.1953-0.078125h-16.945c-0.42969 0-0.86328 0.03125-1.2891 0.089844-1.5703-3.4102-4.9766-5.5977-8.7305-5.6016h-16.945c-5.3047 0.007813-9.6055 4.3086-9.6133 9.6133v8.4727c0 0.62891 0.51172 1.1406 1.1406 1.1406h25.824v4.3711c0 0.62891 0.51172 1.1406 1.1406 1.1406h33.895c0.62891 0 1.1406-0.51172 1.1406-1.1406v-4.3711h25.719c0.30078 0 0.59375-0.12109 0.80469-0.33203 0.21484-0.21484 0.33594-0.50391 0.33594-0.80859v-8.4727c-0.003906-5.3086-4.3047-9.6094-9.6133-9.6172zm-78.105 16.941v-7.332c0.003906-4.0469 3.2852-7.3281 7.332-7.332h16.945c2.7148 0.003906 5.2109 1.5078 6.4805 3.9102-3.6641 1.457-6.0664 4.9961-6.0742 8.9336v1.8203zm58.574 5.5117h-31.609v-7.332c0.007812-4.0469 3.2852-7.3242 7.332-7.3281h16.945c4.0469 0.003906 7.3281 3.2852 7.332 7.332zm26.863-5.5117h-24.582v-1.8203c-0.007813-3.9727-2.4492-7.5352-6.1562-8.9648 1.2734-2.3867 3.7578-3.875 6.4609-3.8789h16.945c4.0469 0.003906 7.3281 3.2852 7.332 7.332zm-15.801-38.125c-3.457 0-6.5781 2.082-7.9023 5.2812-1.3242 3.1953-0.58984 6.875 1.8555 9.3203 2.4453 2.4453 6.125 3.1797 9.3203 1.8555 3.1992-1.3242 5.2812-4.4453 5.2812-7.9023-0.003906-4.7266-3.8359-8.5547-8.5586-8.5547zm0 14.828c-2.5352 0-4.8242-1.5312-5.793-3.875-0.97266-2.3438-0.4375-5.043 1.3594-6.8359 1.793-1.793 4.4922-2.3281 6.8359-1.3594 2.3438 0.97266 3.8711 3.2578 3.8711 5.7969-0.003906 3.4648-2.8125 6.2695-6.2773 6.2734zm-37.074-38.609c0-0.78516 0.47266-1.4922 1.1992-1.7969 0.72656-0.30078 1.5664-0.13281 2.1211 0.42188 0.55469 0.55859 0.72266 1.3945 0.42188 2.1211-0.30078 0.72656-1.0117 1.1992-1.7969 1.1992-1.0742 0-1.9453-0.87109-1.9453-1.9453zm5.5078 0c0-0.78516 0.47266-1.4922 1.1992-1.7969 0.72656-0.30078 1.5625-0.13281 2.1211 0.42188 0.55469 0.55469 0.72266 1.3906 0.42188 2.1172s-1.0078 1.2031-1.793 1.2031c-1.0742 0-1.9453-0.86719-1.9492-1.9453zm5.5078 0c0-0.78516 0.47266-1.4961 1.2031-1.7969 0.72656-0.30078 1.5625-0.13281 2.1211 0.42188 0.55469 0.55859 0.71875 1.3984 0.41797 2.125-0.30469 0.72656-1.0156 1.1992-1.8008 1.1953-1.0703-0.003906-1.9375-0.87109-1.9414-1.9453zm5.5078 0c0-0.78516 0.47656-1.4922 1.2031-1.7969 0.72656-0.30078 1.5625-0.13281 2.1172 0.42188 0.55859 0.55859 0.72266 1.3945 0.42188 2.1211-0.30078 0.72656-1.0078 1.1992-1.7969 1.1992-1.0742 0-1.9453-0.87109-1.9453-1.9453zm-41.727 12.539v6.0273c0 0.45312 0.26562 0.85938 0.67578 1.043 0.41016 0.18359 0.89062 0.10938 1.2266-0.19141l7.4727-6.6445 14.754 0.003906c1.5977-0.003906 2.8906-1.2969 2.8906-2.8906v-0.69922h3.6289l3.7734 6.6016v-0.003906c0.20312 0.35547 0.57812 0.57812 0.98828 0.57812 0.41016 0 0.78906-0.22266 0.98828-0.57812l3.7734-6.6016h3.6289v0.70312c0 1.5938 1.293 2.8867 2.8906 2.8906h14.758l7.4727 6.6445v-0.003906c0.33594 0.30078 0.81641 0.375 1.2266 0.19141 0.41016-0.18359 0.67578-0.58984 0.67188-1.043v-6.0273c1.0625-0.45312 1.75-1.5 1.75-2.6523v-12.59c0-1.5977-1.293-2.8906-2.8906-2.8906h-19.887v-0.69922c0-1.5977-1.293-2.8906-2.8867-2.8906h-22.988c-1.5977 0-2.8906 1.293-2.8906 2.8906v0.69922h-19.887c-1.5938 0-2.8867 1.293-2.8906 2.8906v12.59c0.003906 1.1562 0.69141 2.1992 1.75 2.6523zm69.68-15.852c0.33203 0.003906 0.60156 0.27344 0.60938 0.60547v12.594c-0.007813 0.33594-0.27734 0.60547-0.60938 0.60938-0.63281 0-1.1406 0.51172-1.1406 1.1406v4.3906l-5.8984-5.2422-0.015625-0.011719-0.046875-0.039063-0.042969-0.03125-0.050781-0.03125-0.046875-0.027343-0.050781-0.027344-0.050782-0.023437-0.054687-0.019532-0.050781-0.019531-0.10938-0.03125-0.054688-0.011719-0.054687-0.007812h-0.11328l-15.207-0.003906c-0.33594-0.003907-0.60547-0.27344-0.60938-0.60547v-0.69922h0.82422v-0.003906c1.5938 0 2.8867-1.293 2.8867-2.8867v-9.6172zm-46.371-2.9805h-0.003907c0.007813-0.33594 0.27734-0.60547 0.60938-0.60938h22.992c0.33203 0.003906 0.60156 0.27344 0.60938 0.60938v12.59c-0.007812 0.33594-0.27734 0.60547-0.60938 0.60938h-7.4961l-0.0625 0.007812-0.042969 0.007812-0.10547 0.023438-0.10547 0.035156-0.0625 0.027344-0.039063 0.019531-0.054687 0.03125-0.042969 0.027344-0.046875 0.03125-0.046875 0.035156-0.039062 0.03125-0.046875 0.039063-0.035157 0.035156-0.039062 0.042969c-0.011719 0.015625-0.023438 0.03125-0.039062 0.046875l-0.027344 0.039062c-0.015625 0.019532-0.027344 0.042969-0.039063 0.0625l-0.015625 0.023438-0.011718 0.019531-3.1016 5.4219-3.1016-5.4219-0.011718-0.019531-0.015625-0.023438c-0.011719-0.023437-0.027344-0.042968-0.039063-0.0625l-0.027344-0.039062c-0.011718-0.015625-0.023437-0.03125-0.039062-0.046875l-0.039062-0.042969-0.035157-0.039062-0.042969-0.039063-0.039062-0.03125-0.046875-0.035156-0.046875-0.03125-0.042969-0.027344-0.054687-0.03125-0.039063-0.019531-0.0625-0.027344-0.14062-0.046875-0.070312-0.015625-0.046875-0.007812-0.0625-0.007813h-0.097657l-7.3867 0.007813c-0.33594-0.003907-0.60547-0.27344-0.60938-0.60938zm-22.777 3.5898c0.007813-0.33594 0.27734-0.60547 0.60938-0.60937h19.887v9.6094c0 1.5977 1.293 2.8906 2.8906 2.8906h0.82422v0.69922h-0.003906c-0.003906 0.33594-0.27344 0.60547-0.60938 0.60938h-15.32l-0.0625 0.011719-0.046875 0.007812-0.058594 0.015626-0.10547 0.035156-0.046875 0.019531-0.10156 0.050781-0.050782 0.03125-0.046874 0.03125-0.042969 0.03125-0.046875 0.039063-0.015625 0.011719-5.8984 5.2422-0.003906-4.3867c0-0.62891-0.50781-1.1406-1.1406-1.1406-0.33203-0.003906-0.60156-0.27344-0.60547-0.60938z"/>
<text x="0.0" y="117.5" font-size="5.0" font-weight="bold" font-family="Arbeit Regular, Helvetica, Arial-Unicode, Arial, Sans-serif" fill="#000000">Created by alexa</text><text x="0.0" y="122.5" font-size="5.0" font-weight="bold" font-family="Arbeit Regular, Helvetica, Arial-Unicode, Arial, Sans-serif" fill="#000000">from Noun Project</text></svg>