<svg xmlns="http://www.w3.org/2000/svg" xmlns:xlink="http://www.w3.org/1999/xlink" version="1.1" x="0px" y="0px" viewBox="0 0 512 640" style="enable-background:new 0 0 512 512;" xml:space="preserve"><path d="M489.9,371.6l-13.9-3.3c-6.8-1.6-10.9-8.4-9.3-15.2c0.3-1.3,0.8-2.5,1.5-3.6l7.5-12.3c1.9-3.2,1.5-7.2-1.2-9.8l-17.8-17.8  c-2.6-2.6-6.7-3.1-9.8-1.2l-12.3,7.5c-5.9,3.6-13.7,1.8-17.3-4.2c-0.7-1.1-1.2-2.4-1.5-3.6l-3.3-13.9c-0.9-3.6-4.1-6.1-7.8-6.1  h-12.9c5.4-8,8.3-17.4,8.3-27.1V65.1c0-26.5-21.5-48-48-48c-3.3,0-6.5,0.3-9.7,1l-194.3,40c-21,4.4-36.6,22.2-38.2,43.6l-5.7,80.3  l-39.4,86.7c-1.8,4,0,8.8,4,10.6c1,0.5,2.2,0.7,3.3,0.7h32v96.4c0,13.3,10.7,24,24,24c3.1,0,6.1-0.6,8.9-1.7l63.1-25.2V496h16V367  l59-23.6l-5.9-14.9L131,383.8c-4.1,1.6-8.8-0.4-10.4-4.5c-0.4-0.9-0.6-2-0.6-3V272c0-4.4-3.6-8-8-8c0,0,0,0,0,0H84.4l34.9-76.7  c0.4-0.9,0.6-1.8,0.7-2.7l5.8-81.8c1.1-14.3,11.4-26.1,25.5-29.1l194.3-40c17.3-3.6,34.2,7.6,37.8,24.9c0.4,2.1,0.7,4.3,0.7,6.5  v195.8c0,13.1-7.9,24.9-20.1,29.7l5.4,13.4l-1,4c-1.6,6.8-8.4,10.9-15.2,9.3c-1.3-0.3-2.5-0.8-3.6-1.5l-12.3-7.5  c-3.2-1.9-7.2-1.5-9.8,1.2l-17.8,17.8c-2.6,2.6-3.1,6.7-1.2,9.8l7.5,12.3c3.6,5.9,1.8,13.7-4.2,17.3c-1.1,0.7-2.4,1.2-3.6,1.5  l-13.9,3.3c-3.6,0.9-6.1,4.1-6.1,7.8v25.2c0,3.7,2.5,6.9,6.1,7.8l13.9,3.3c6.8,1.6,10.9,8.4,9.3,15.2c-0.3,1.3-0.8,2.5-1.5,3.6  l-7.5,12.3c-1.9,3.2-1.5,7.2,1.2,9.8l17.8,17.8c2.6,2.6,6.7,3.1,9.8,1.2l12.3-7.5c5.9-3.6,13.7-1.8,17.3,4.2  c0.7,1.1,1.2,2.4,1.5,3.6l3.3,13.9c0.9,3.6,4.1,6.1,7.8,6.1h25.2c3.7,0,6.9-2.5,7.8-6.1l3.3-13.9c1.6-6.8,8.4-10.9,15.2-9.3  c1.3,0.3,2.5,0.8,3.6,1.5l12.3,7.5c3.2,1.9,7.2,1.5,9.8-1.2l17.8-17.8c2.6-2.6,3.1-6.7,1.2-9.8l-7.5-12.3  c-3.6-5.9-1.8-13.7,4.2-17.3c1.1-0.7,2.4-1.2,3.6-1.5l13.9-3.3c3.6-0.9,6.1-4.1,6.1-7.8v-25.2C496,375.7,493.5,372.5,489.9,371.6z   M480,398.3l-7.8,1.9c-15.4,3.7-24.8,19.1-21.1,34.5c0.7,2.9,1.9,5.7,3.4,8.3l4.2,6.9l-8.9,8.9l-6.9-4.2c-13.5-8.3-31.1-4-39.3,9.4  c-1.6,2.6-2.7,5.4-3.4,8.3l-1.9,7.8h-12.6l-1.9-7.8c-3.7-15.4-19.1-24.8-34.5-21.1c-2.9,0.7-5.7,1.9-8.3,3.4l-6.9,4.2l-8.9-8.9  l4.2-6.9c8.3-13.5,4-31.1-9.4-39.3c-2.6-1.6-5.4-2.7-8.3-3.4l-7.8-1.9v-12.6l7.8-1.9c15.4-3.7,24.8-19.1,21.1-34.5  c-0.7-2.9-1.9-5.7-3.4-8.3l-4.2-6.9l8.9-8.9l6.9,4.2c13.5,8.3,31.1,4,39.3-9.4c1.6-2.6,2.7-5.4,3.4-8.3l1.9-7.8h12.6l1.9,7.8  c3.7,15.4,19.1,24.8,34.5,21.1c2.9-0.7,5.7-1.9,8.3-3.4l6.9-4.2l8.9,8.9l-4.2,6.9c-8.3,13.5-4,31.1,9.4,39.3  c2.6,1.6,5.4,2.7,8.3,3.4l7.8,1.9V398.3z"/><path d="M160,296c0,13.3,10.7,24,24,24c13.3,0,24-10.7,24-24c0-10.2-6.4-19.2-16-22.6V168c0-2.1-0.8-4.2-2.3-5.7l-32-32l-11.3,11.3  l29.7,29.7v102.1C166.4,276.8,160,285.8,160,296z M184,304c-4.4,0-8-3.6-8-8s3.6-8,8-8s8,3.6,8,8C192,300.4,188.4,304,184,304z"/><path d="M288,272c0,13.3,10.7,24,24,24c13.3,0,24-10.7,24-24c0-13.3-10.7-24-24-24c-3.6,0-7.1,0.8-10.4,2.3L264,212.7V107.3  l29.7-29.7l-11.3-11.3l-32,32c-1.5,1.5-2.3,3.5-2.3,5.7v112c0,2.1,0.8,4.2,2.3,5.7l40,40C288.8,264.9,288,268.4,288,272z M320,272  c0,4.4-3.6,8-8,8s-8-3.6-8-8s3.6-8,8-8C316.4,264,320,267.6,320,272z"/><path d="M357.7,69.7l-11.3-11.3l-40,40c-1.5,1.5-2.3,3.5-2.3,5.7v81.4c-12.5,4.4-19,18.1-14.6,30.6c4.4,12.5,18.1,19,30.6,14.6  s19-18.1,14.6-30.6c-2.4-6.8-7.8-12.2-14.6-14.6v-78.1L357.7,69.7z M312,216c-4.4,0-8-3.6-8-8s3.6-8,8-8s8,3.6,8,8  C320,212.4,316.4,216,312,216z"/><path d="M240,296c13.3,0,24-10.7,24-24c0-13.3-10.7-24-24-24c-3.6,0-7.1,0.8-10.4,2.3l-5.7-5.7V128c0-2.1-0.8-4.2-2.3-5.7l-32-32  l-11.3,11.3l29.7,29.7V248c0,2.1,0.8,4.2,2.3,5.7l8,8c-5.7,12-0.7,26.3,11.3,32C232.9,295.2,236.4,296,240,296z M248,272  c0,4.4-3.6,8-8,8s-8-3.6-8-8s3.6-8,8-8C244.4,264,248,267.6,248,272z"/><path d="M392,352c-22.1,0-40,17.9-40,40s17.9,40,40,40s40-17.9,40-40C432,369.9,414.1,352,392,352z M392,416c-13.3,0-24-10.7-24-24  s10.7-24,24-24s24,10.7,24,24C416,405.2,405.2,416,392,416z"/><path d="M489.6,309.2l12.2-10.4c-5.1-6-10.6-11.5-16.6-16.6l-10.4,12.2C480.1,298.9,485.1,303.9,489.6,309.2z"/><path d="M468.2,269.8c-15.5-9.7-32.8-16.4-50.8-19.6l-2.8,15.8c16,2.8,31.4,8.8,45.2,17.4L468.2,269.8z"/><path d="M266,369.4l-15.8-2.8c-1,5.6-1.7,11.3-2,16.9l16,0.9C264.5,379.4,265.1,374.4,266,369.4z"/><path d="M264.2,399.5l-16,0.9c2.4,39.4,20.8,76.2,51,101.7l10.3-12.2C282.7,467.2,266.3,434.6,264.2,399.5z"/><text x="0" y="527" fill="#000000" font-size="5px" font-weight="bold" font-family="'Helvetica Neue', Helvetica, Arial-Unicode, Arial, Sans-serif">Created by WiStudio</text><text x="0" y="532" fill="#000000" font-size="5px" font-weight="bold" font-family="'Helvetica Neue', Helvetica, Arial-Unicode, Arial, Sans-serif">from the Noun Project</text></svg>